# 3ds Max Wavefront OBJ Exporter v0.99 - (c)2007 guruware
# File Created: 29.06.2022 15:30:57

mtllib yoot2.mtl

#
# object Cylinder018
#

v  7.962776 40.297432 -7.434012
v  6.935840 57.775177 -7.434013
v  8.372299 57.775177 -3.761796
v  9.611921 40.297432 -3.761797
v  8.818192 19.984295 -7.434019
v  10.644499 19.984299 -3.761797
v  -0.000001 40.301979 -11.763372
v  -0.000001 57.782387 -11.763371
v  3.467919 57.781509 -10.237833
v  3.981388 40.301979 -10.237831
v  -0.000001 20.006927 -11.763375
v  4.409097 20.006927 -10.237837
v  -7.962776 40.297432 -7.434012
v  -6.935840 57.775177 -7.434013
v  -3.467921 57.781509 -10.237833
v  -3.981388 40.301979 -10.237831
v  -8.818192 19.984291 -7.434019
v  -4.409097 20.006916 -10.237837
v  -4.864743 68.974663 -3.763525
v  -0.000000 72.149193 -3.765255
v  -0.000001 0.000000 -11.763372
v  -4.409096 0.000000 -10.237833
v  -8.372299 57.775177 -3.761796
v  8.818192 0.000000 -7.434016
v  4.409096 0.000000 -10.237833
v  4.864743 68.974663 -3.763525
v  -10.644501 19.984303 -3.761797
v  -8.818192 0.000000 -7.434016
v  -10.644499 0.000000 -3.761800
v  -9.611921 40.297432 -3.761797
v  10.644501 0.000000 -3.761800
v  7.962776 -40.297432 -7.434022
v  9.611921 -40.297432 -3.761806
v  8.372299 -57.775177 -3.761810
v  6.935840 -57.775177 -7.434027
v  8.818192 -19.984295 -7.434024
v  10.644499 -19.984301 -3.761802
v  -0.000001 -40.301975 -11.763382
v  3.981388 -40.301975 -10.237841
v  3.467919 -57.781502 -10.237847
v  -0.000001 -57.782379 -11.763385
v  -0.000001 -20.006924 -11.763380
v  4.409097 -20.006924 -10.237842
v  -7.962776 -40.297432 -7.434022
v  -3.981388 -40.301975 -10.237841
v  -3.467921 -57.781502 -10.237847
v  -6.935840 -57.775177 -7.434027
v  -8.818192 -19.984291 -7.434024
v  -4.409097 -20.006916 -10.237842
v  -0.000000 -72.149193 -3.765272
v  -4.864743 -68.974663 -3.763542
v  -8.372299 -57.775177 -3.761810
v  4.864743 -68.974663 -3.763542
v  -10.644501 -19.984304 -3.761802
v  -9.611921 -40.297432 -3.761806
# 55 vertices

vn 0.771187 0.048000 -0.634797
vn 0.592918 0.674380 -0.440068
vn 0.911529 0.204883 -0.356563
vn 0.910110 0.068184 -0.408719
vn 0.745037 0.019334 -0.666743
vn 0.895035 0.027815 -0.445128
vn 0.000042 0.000000 -1.000000
vn 0.000027 0.277050 -0.960855
vn 0.489778 0.251690 -0.834727
vn 0.470657 0.014667 -0.882195
vn -0.000000 -0.000000 -1.000000
vn 0.435532 0.005682 -0.900155
vn -0.771187 0.048000 -0.634797
vn -0.592918 0.674380 -0.440068
vn -0.489778 0.251690 -0.834727
vn -0.470657 0.014667 -0.882195
vn -0.745037 0.019334 -0.666743
vn -0.435532 0.005682 -0.900155
vn -0.439674 0.476156 -0.761553
vn -0.000000 0.566473 -0.824080
vn 0.000000 0.000000 -1.000000
vn -0.434748 0.000000 -0.900552
vn -0.911529 0.204883 -0.356563
vn 0.743226 0.000000 -0.669041
vn 0.434759 0.000000 -0.900547
vn 0.439674 0.476156 -0.761553
vn -0.895035 0.027815 -0.445128
vn -0.743205 0.000000 -0.669063
vn -0.895381 0.000000 -0.445301
vn -0.910110 0.068184 -0.408719
vn 0.895381 0.000000 -0.445301
vn 0.771187 -0.048000 -0.634797
vn 0.910110 -0.068184 -0.408719
vn 0.911529 -0.204883 -0.356563
vn 0.592918 -0.674380 -0.440068
vn 0.745037 -0.019334 -0.666743
vn 0.895035 -0.027815 -0.445128
vn 0.470657 -0.014667 -0.882195
vn 0.489778 -0.251690 -0.834727
vn 0.000027 -0.277050 -0.960856
vn -0.000000 0.000000 -1.000000
vn 0.435532 -0.005682 -0.900155
vn -0.771187 -0.048000 -0.634797
vn -0.470657 -0.014667 -0.882195
vn -0.489778 -0.251690 -0.834727
vn -0.592918 -0.674380 -0.440068
vn -0.745037 -0.019334 -0.666743
vn -0.435532 -0.005682 -0.900155
vn -0.000000 -0.566473 -0.824081
vn -0.439674 -0.476156 -0.761553
vn -0.911529 -0.204883 -0.356563
vn 0.439674 -0.476156 -0.761553
vn -0.895035 -0.027815 -0.445128
vn -0.910110 -0.068184 -0.408719
# 54 vertex normals

vt 0.875000 0.800000 1.000000
vt 0.875000 1.000000 1.000000
vt 0.812500 1.000000 1.000000
vt 0.812500 0.800000 1.000000
vt 0.875000 0.600000 1.000000
vt 0.812500 0.600000 1.000000
vt 0.000000 0.800000 1.000000
vt 0.000000 1.000000 1.000000
vt -0.062500 1.000000 1.000000
vt -0.062500 0.800000 1.000000
vt 0.000000 0.600000 1.000000
vt -0.062500 0.600000 1.000000
vt 0.125000 0.800000 1.000000
vt 0.125000 1.000000 1.000000
vt 0.062500 1.000000 1.000000
vt 0.062500 0.800000 1.000000
vt 0.125000 0.600000 1.000000
vt 0.062500 0.600000 1.000000
vt 0.780330 1.000000 0.414214
vt 0.650888 1.000000 0.000000
vt 0.512944 1.000000 -0.250000
vt 0.640165 1.000000 0.207107
vt 0.000000 0.400215 1.000000
vt 0.062500 0.400215 1.000000
vt 0.521447 1.000000 -0.414213
vt 0.385723 1.000000 -0.707107
vt -0.125000 0.600000 1.000000
vt -0.125000 0.400197 1.000000
vt -0.062500 0.400215 1.000000
vt 0.827665 1.000000 0.707107
vt 0.726333 1.000000 0.603553
vt -0.125000 1.000000 1.000000
vt -0.125000 0.800000 1.000000
vt 0.187500 0.600000 1.000000
vt 0.125000 0.400197 1.000000
vt 0.187500 0.400197 1.000000
vt 0.187500 1.000000 1.000000
vt 0.187500 0.800000 1.000000
vt 0.875000 0.400197 1.000000
vt 0.812500 0.400197 1.000000
# 40 texture coords

o Cylinder018
g Cylinder018
usemtl 01___Default
s 1
f 1/1/1 2/2/2 3/3/3 4/4/4 
f 5/5/5 1/1/1 4/4/4 6/6/6 
f 7/7/7 8/8/8 9/9/9 10/10/10 
f 11/11/11 7/7/7 10/10/10 12/12/12 
f 13/13/13 14/14/14 15/15/15 16/16/16 
f 17/17/17 13/13/13 16/16/16 18/18/18 
f 8/19/8 15/20/15 19/21/19 20/22/20 
f 18/18/18 11/11/11 21/23/21 22/24/22 
f 15/15/15 8/8/8 7/7/7 16/16/16 
f 16/16/16 7/7/7 11/11/11 18/18/18 
f 15/20/15 14/25/14 23/26/23 19/21/19 
f 12/12/12 5/27/5 24/28/24 25/29/25 
f 9/30/9 8/19/8 20/22/20 26/31/26 
f 9/9/9 2/32/2 1/33/1 10/10/10 
f 10/10/10 1/33/1 5/27/5 12/12/12 
f 27/34/27 17/17/17 28/35/28 29/36/29 
f 3/3/3 2/2/2 9/30/9 26/31/26 
f 23/37/23 14/14/14 13/13/13 30/38/30 
f 30/38/30 13/13/13 17/17/17 27/34/27 
f 24/39/24 5/5/5 6/6/6 31/40/31 
f 21/23/21 11/11/11 12/12/12 25/29/25 
f 28/35/28 17/17/17 18/18/18 22/24/22 
f 32/1/32 33/4/33 34/3/34 35/2/35 
f 36/5/36 37/6/37 33/4/33 32/1/32 
f 38/7/7 39/10/38 40/9/39 41/8/40 
f 42/11/41 43/12/42 39/10/38 38/7/7 
f 44/13/43 45/16/44 46/15/45 47/14/46 
f 48/17/47 49/18/48 45/16/44 44/13/43 
f 41/19/40 50/22/49 51/21/50 46/20/45 
f 49/18/48 22/24/22 21/23/21 42/11/41 
f 46/15/45 45/16/44 38/7/7 41/8/40 
f 45/16/44 49/18/48 42/11/41 38/7/7 
f 46/20/45 51/21/50 52/26/51 47/25/46 
f 43/12/42 25/29/25 24/28/24 36/27/36 
f 40/30/39 53/31/52 50/22/49 41/19/40 
f 40/9/39 39/10/38 32/33/32 35/32/35 
f 39/10/38 43/12/42 36/27/36 32/33/32 
f 54/34/53 29/36/29 28/35/28 48/17/47 
f 34/3/34 53/31/52 40/30/39 35/2/35 
f 52/37/51 55/38/54 44/13/43 47/14/46 
f 55/38/54 54/34/53 48/17/47 44/13/43 
f 24/39/24 31/40/31 37/6/37 36/5/36 
f 21/23/21 25/29/25 43/12/42 42/11/41 
f 28/35/28 22/24/22 49/18/48 48/17/47 
# 44 polygons

#
# object Object998
#

v  8.745433 57.775177 -1.039124
v  8.372299 57.775177 -3.761796
v  4.864743 68.974663 -3.763525
v  5.081553 68.974663 -1.039121
v  -11.118899 19.984299 -1.039128
v  -11.118900 0.000000 -1.039126
v  -5.559450 0.000000 -1.039127
v  -5.559450 19.984299 -1.039129
v  -10.040301 40.297432 -1.039122
v  -8.745433 57.775177 -1.039120
v  -8.372299 57.775177 -3.761796
v  -9.611921 40.297432 -3.761797
v  -10.644501 19.984303 -3.761797
v  10.040301 40.297432 -1.039124
v  5.020151 40.301979 -1.039124
v  11.118899 19.984299 -1.039131
v  5.559450 20.006920 -1.039131
v  0.000000 72.149193 -1.039121
v  -5.081553 68.974663 -1.039119
v  -5.020151 40.301979 -1.039123
v  0.000000 40.301979 -1.039123
v  -0.000000 20.006920 -1.039130
v  10.644499 19.984299 -3.761797
v  11.118899 0.000000 -1.039130
v  10.644501 0.000000 -3.761800
v  9.611921 40.297432 -3.761797
v  -4.864743 68.974663 -3.763525
v  -0.000000 72.149193 -3.765255
v  -10.644499 0.000000 -3.761800
v  5.559450 0.000000 -1.039128
v  -0.000000 0.000000 -1.039127
v  8.745433 -57.775177 -1.039137
v  5.081553 -68.974663 -1.039138
v  4.864743 -68.974663 -3.763542
v  8.372299 -57.775177 -3.761810
v  -11.118899 -19.984301 -1.039133
v  -5.559450 -19.984301 -1.039134
v  -10.040301 -40.297432 -1.039132
v  -9.611921 -40.297432 -3.761806
v  -8.372299 -57.775177 -3.761810
v  -8.745433 -57.775177 -1.039134
v  -10.644501 -19.984304 -3.761802
v  10.040301 -40.297432 -1.039134
v  5.020151 -40.301975 -1.039134
v  11.118899 -19.984301 -1.039136
v  5.559450 -20.006922 -1.039135
v  0.000000 -72.149193 -1.039138
v  0.000000 -40.301975 -1.039133
v  -5.020151 -40.301975 -1.039133
v  -5.081553 -68.974663 -1.039136
v  -0.000000 -20.006922 -1.039135
v  10.644499 -19.984301 -3.761802
v  9.611921 -40.297432 -3.761806
v  -4.864743 -68.974663 -3.763542
v  -0.000000 -72.149193 -3.765272
# 55 vertices

vn 0.758448 0.181310 0.626006
vn 0.964897 0.226908 -0.132236
vn 0.737972 0.672271 -0.058728
vn 0.587719 0.527405 0.613540
vn -0.771404 0.025171 0.635847
vn -0.765309 -0.000000 0.643663
vn 0.000000 -0.000000 1.000000
vn -0.760197 0.059606 0.646953
vn -0.758448 0.181310 0.626006
vn -0.964897 0.226908 -0.132236
vn -0.985129 0.074133 -0.154998
vn -0.984684 0.030979 -0.171572
vn 0.760197 0.059606 0.646953
vn 0.771405 0.025171 0.635847
vn 0.000000 0.786008 0.618216
vn -0.587718 0.527405 0.613540
vn 0.984684 0.030979 -0.171573
vn 0.765309 -0.000000 0.643663
vn 0.985157 0.000000 -0.171654
vn 0.985129 0.074133 -0.154998
vn -0.737972 0.672271 -0.058728
vn -0.000000 1.000000 0.000000
vn -0.985157 0.000000 -0.171655
vn 0.758448 -0.181311 0.626006
vn 0.587719 -0.527405 0.613540
vn 0.737972 -0.672271 -0.058728
vn 0.964897 -0.226908 -0.132236
vn -0.771404 -0.025171 0.635847
vn -0.760197 -0.059606 0.646953
vn -0.985129 -0.074133 -0.154998
vn -0.964897 -0.226908 -0.132236
vn -0.758448 -0.181310 0.626006
vn -0.984684 -0.030979 -0.171572
vn 0.760197 -0.059606 0.646953
vn 0.771405 -0.025171 0.635847
vn 0.000000 -0.786009 0.618216
vn -0.587718 -0.527405 0.613540
vn 0.984684 -0.030979 -0.171573
vn 0.985129 -0.074133 -0.154998
vn -0.737972 -0.672271 -0.058728
vn -0.000000 -1.000000 -0.000000
# 41 vertex normals

vt 0.750000 1.000000 1.000000
vt 0.812500 1.000000 1.000000
vt 0.726333 1.000000 0.603553
vt 0.625000 1.000000 0.500000
vt 0.250000 0.600000 -0.200000
vt 0.250000 0.400197 0.199606
vt 0.279949 0.400197 0.311865
vt 0.311612 0.600000 0.041421
vt 0.250000 0.800000 1.000000
vt 0.250000 1.000000 1.000000
vt 0.187500 1.000000 1.000000
vt 0.187500 0.800000 1.000000
vt 0.250000 0.600000 1.000000
vt 0.187500 0.600000 1.000000
vt 0.623223 0.800000 0.882843
vt 0.529917 0.800000 0.512132
vt 0.496447 0.600000 0.765685
vt 0.434835 0.600000 0.524264
vt 0.500000 1.000000 -0.000000
vt 0.375000 1.000000 -0.500000
vt 0.343306 0.800000 -0.229289
vt 0.436612 0.800000 0.141421
vt 0.373223 0.600000 0.282843
vt 0.250000 1.000000 -1.000000
vt 0.250000 0.800000 -0.600000
vt 0.812500 0.600000 1.000000
vt 0.750000 0.600000 1.000000
vt 0.750000 0.400197 1.000000
vt 0.812500 0.400197 1.000000
vt 0.750000 0.800000 1.000000
vt 0.812500 0.800000 1.000000
vt 0.512944 1.000000 -0.250000
vt 0.640165 1.000000 0.207107
vt 0.385723 1.000000 -0.707107
vt 0.250000 0.400197 1.000000
vt 0.187500 0.400197 1.000000
vt 0.339855 0.400215 0.536383
vt 0.309903 0.400215 0.424112
vt 0.369795 0.400197 0.648644
# 39 texture coords

o Object998
g Object998
usemtl 01___Default
s 1
f 56/41/55 57/42/56 58/43/57 59/44/58 
s 2
f 60/45/59 61/46/60 62/47/61 63/48/61 
s 1
f 64/49/62 65/50/63 66/51/64 67/52/65 
f 60/53/59 64/49/62 67/52/65 68/54/66 
s 2
f 69/55/67 56/41/55 59/44/58 70/56/61 
f 71/57/68 69/55/67 70/56/61 72/58/61 
f 73/59/69 74/60/70 75/61/61 76/62/61 
f 76/62/61 75/61/61 63/48/61 77/63/61 
f 74/60/70 65/64/63 64/65/62 75/61/61 
f 75/61/61 64/65/62 60/45/59 63/48/61 
f 59/44/58 73/59/69 76/62/61 70/56/61 
f 70/56/61 76/62/61 77/63/61 72/58/61 
s 1
f 78/66/71 71/67/68 79/68/72 80/69/73 
f 57/42/56 56/41/55 69/70/67 81/71/74 
f 81/71/74 69/70/67 71/67/68 78/66/71 
f 82/72/75 74/60/70 73/59/69 83/73/76 
f 66/74/64 65/64/63 74/60/70 82/72/75 
f 83/73/76 73/59/69 59/44/58 58/43/57 
f 61/75/60 60/53/59 68/54/66 84/76/77 
s 2
f 85/77/61 72/58/61 77/63/61 86/78/61 
f 86/78/61 77/63/61 63/48/61 62/47/61 
f 79/79/72 71/57/68 72/58/61 85/77/61 
s 1
f 87/41/78 88/44/79 89/43/80 90/42/81 
s 2
f 91/45/82 92/48/61 62/47/61 61/46/60 
s 1
f 93/49/83 94/52/84 95/51/85 96/50/86 
f 91/53/82 97/54/87 94/52/84 93/49/83 
s 2
f 98/55/88 99/56/61 88/44/79 87/41/78 
f 100/57/89 101/58/61 99/56/61 98/55/88 
f 102/59/90 103/62/61 104/61/61 105/60/91 
f 103/62/61 106/63/61 92/48/61 104/61/61 
f 105/60/91 104/61/61 93/65/83 96/64/86 
f 104/61/61 92/48/61 91/45/82 93/65/83 
f 88/44/79 99/56/61 103/62/61 102/59/90 
f 99/56/61 101/58/61 106/63/61 103/62/61 
s 1
f 107/66/92 80/69/73 79/68/72 100/67/89 
f 90/42/81 108/71/93 98/70/88 87/41/78 
f 108/71/93 107/66/92 100/67/89 98/70/88 
f 109/72/94 110/73/95 102/59/90 105/60/91 
f 95/74/85 109/72/94 105/60/91 96/64/86 
f 110/73/95 89/43/80 88/44/79 102/59/90 
f 61/75/60 84/76/77 97/54/87 91/53/82 
s 2
f 85/77/61 86/78/61 106/63/61 101/58/61 
f 86/78/61 62/47/61 92/48/61 106/63/61 
f 79/79/72 85/77/61 101/58/61 100/57/89 
# 44 polygons

